<svg xmlns="http://www.w3.org/2000/svg" width="48" height="48" viewBox="0 0 48 48"><defs><style>.a,.b{fill:#0055a4;}.a{fill-rule:evenodd;}</style></defs><title>icon_global</title><path class="a" d="M35,11.26H32.18c.23.91.45,1.86.65,2.83h2.83C35.46,13.13,35.25,12.17,35,11.26Z"/><path class="a" d="M36.72,22.6H33.88c0,.44,0,.88,0,1.33s0,1,0,1.51h2.8c0-.5.07-1,.07-1.51S36.73,23,36.72,22.6Z"/><path class="a" d="M45.94,14.1H35.66a50.85,50.85,0,0,1,1.05,8.5H48A24,24,0,0,0,45.94,14.1Z"/><path class="a" d="M32.8,33.93c-.2,1-.42,1.92-.65,2.83H35c.23-.91.44-1.86.64-2.83Z"/><path class="a" d="M31.64,46.84A24.09,24.09,0,0,0,44.36,36.76H35A74.33,74.33,0,0,1,31.64,46.84Z"/><path class="a" d="M48,25.43H36.69a52.09,52.09,0,0,1-1.09,8.5H45.87A23.84,23.84,0,0,0,48,25.43Z"/><path class="a" d="M44.41,11.26a24.15,24.15,0,0,0-12.75-10,72.78,72.78,0,0,1,3.35,10Z"/><rect class="b" x="22.59" y="11.26" width="2.83" height="2.83"/><rect class="b" x="22.59" y="22.6" width="2.83" height="2.83"/><rect class="b" x="22.59" y="33.93" width="2.83" height="2.83"/><path class="a" d="M32.8,33.93a51.8,51.8,0,0,0,1.08-8.5H25.43v8.5Z"/><path class="a" d="M28.45,47.67a72.51,72.51,0,0,0,3.7-10.91H25.43V48A25.12,25.12,0,0,0,28.45,47.67Z"/><path class="a" d="M33.88,22.6a50.83,50.83,0,0,0-1.05-8.5H25.43v8.5Z"/><path class="a" d="M32.18,11.26A71.4,71.4,0,0,0,28.47.39a26.94,26.94,0,0,0-3-.38V11.26Z"/><path class="a" d="M11.26,24c0,.47,0,.94,0,1.42h2.83c0-.47,0-.94,0-1.42s0-.94,0-1.42H11.3C11.28,23.07,11.26,23.54,11.26,24Z"/><path class="a" d="M13,36.76h2.83c-.23-.91-.45-1.86-.65-2.83H12.37C12.57,34.9,12.78,35.85,13,36.76Z"/><path class="a" d="M13,11.26c-.23.91-.45,1.86-.65,2.83H15.2c.2-1,.42-1.92.65-2.83Z"/><path class="a" d="M22.59,33.93v-8.5H14.13a51.14,51.14,0,0,0,1.07,8.5Z"/><path class="a" d="M0,25.43a24,24,0,0,0,2.1,8.5H12.37a51.14,51.14,0,0,1-1.07-8.5Z"/><path class="a" d="M3.62,36.76a24,24,0,0,0,12.73,10,73.39,73.39,0,0,1-3.34-10Z"/><path class="a" d="M22.59,48V36.76H15.85a72,72,0,0,0,3.7,10.86A24.25,24.25,0,0,0,22.59,48Z"/><path class="a" d="M22.59,22.6V14.1H15.2a51.14,51.14,0,0,0-1.07,8.5Z"/><path class="a" d="M2.08,14.1A24,24,0,0,0,0,22.6H11.3a51.14,51.14,0,0,1,1.07-8.5Z"/><path class="a" d="M22.59,11.26V0a24.29,24.29,0,0,0-3,.38,72,72,0,0,0-3.7,10.86Z"/><path class="a" d="M3.6,11.26H13a73.37,73.37,0,0,1,3.34-10A24,24,0,0,0,3.6,11.26Z"/></svg>