<svg xmlns="http://www.w3.org/2000/svg" width="48" height="48" viewBox="0 0 48 48"><defs><style>.a,.b{fill:#fff;}.a{fill-rule:evenodd;}</style></defs><title>global_w</title><path class="a" d="M35,11.31H32.17c.23.91.45,1.86.65,2.83h2.83C35.45,13.17,35.24,12.22,35,11.31Z"/><path class="a" d="M36.71,22.64H33.87c0,.44,0,.88,0,1.33s0,1,0,1.51h2.8c0-.5.07-1,.07-1.51S36.72,23.08,36.71,22.64Z"/><path class="a" d="M45.93,14.14H35.65a50.85,50.85,0,0,1,1.05,8.5H48A24,24,0,0,0,45.93,14.14Z"/><path class="a" d="M32.79,34c-.2,1-.42,1.92-.65,2.83h2.8c.23-.91.44-1.86.64-2.83Z"/><path class="a" d="M31.63,46.88A24.09,24.09,0,0,0,44.35,36.81h-9.4A74.33,74.33,0,0,1,31.63,46.88Z"/><path class="a" d="M48,25.47H36.68A52.09,52.09,0,0,1,35.59,34H45.86A23.84,23.84,0,0,0,48,25.47Z"/><path class="a" d="M44.4,11.31a24.15,24.15,0,0,0-12.75-10,72.78,72.78,0,0,1,3.35,10Z"/><rect class="b" x="22.58" y="11.31" width="2.83" height="2.83"/><rect class="b" x="22.58" y="22.64" width="2.83" height="2.83"/><rect class="b" x="22.58" y="33.97" width="2.83" height="2.83"/><path class="a" d="M32.79,34a51.8,51.8,0,0,0,1.08-8.5H25.42V34Z"/><path class="a" d="M28.44,47.71a72.51,72.51,0,0,0,3.7-10.91H25.42V48.07A25.12,25.12,0,0,0,28.44,47.71Z"/><path class="a" d="M33.87,22.64a50.83,50.83,0,0,0-1.05-8.5H25.42v8.5Z"/><path class="a" d="M32.17,11.31A71.4,71.4,0,0,0,28.46.44a26.94,26.94,0,0,0-3-.38V11.31Z"/><path class="a" d="M11.25,24.06c0,.47,0,.94,0,1.42h2.83c0-.47,0-.94,0-1.42s0-.94,0-1.42H11.29C11.27,23.11,11.25,23.58,11.25,24.06Z"/><path class="a" d="M13,36.81h2.83c-.23-.91-.45-1.86-.65-2.83H12.36C12.56,34.94,12.77,35.89,13,36.81Z"/><path class="a" d="M13,11.31c-.23.91-.45,1.86-.65,2.83h2.83c.2-1,.42-1.92.65-2.83Z"/><path class="a" d="M22.58,34v-8.5H14.12A51.14,51.14,0,0,0,15.19,34Z"/><path class="a" d="M0,25.47A24,24,0,0,0,2.09,34H12.36a51.14,51.14,0,0,1-1.07-8.5Z"/><path class="a" d="M3.61,36.81a24,24,0,0,0,12.73,10,73.39,73.39,0,0,1-3.34-10Z"/><path class="a" d="M22.58,48V36.81H15.84a72,72,0,0,0,3.7,10.86A24.25,24.25,0,0,0,22.58,48Z"/><path class="a" d="M22.58,22.64v-8.5H15.19a51.14,51.14,0,0,0-1.07,8.5Z"/><path class="a" d="M2.07,14.14A24,24,0,0,0,0,22.64h11.3a51.14,51.14,0,0,1,1.07-8.5Z"/><path class="a" d="M22.58,11.31V.06a24.29,24.29,0,0,0-3,.38,72,72,0,0,0-3.7,10.86Z"/><path class="a" d="M3.59,11.31H13a73.37,73.37,0,0,1,3.34-10A24,24,0,0,0,3.59,11.31Z"/></svg>