<svg xmlns="http://www.w3.org/2000/svg" viewBox="0 0 36.02 47.97"><defs><style>.cls-1,.cls-2{fill:#fff;}.cls-1{fill-rule:evenodd;}</style></defs><title>icon_pdf_wicon_</title><g id="レイヤー_2" data-name="レイヤー 2"><g id="レイヤー_1-2" data-name="レイヤー 1"><polygon class="cls-1" points="20.67 15.35 20.75 0 36.02 15.28 20.67 15.35"/><polygon class="cls-1" points="30.94 43.05 5.1 43.05 5.1 5.05 24.83 5.05 20.78 0 0 0 0 47.97 36.02 47.97 36.02 15.24 30.94 11.16 30.94 43.05"/><path class="cls-2" d="M34.63,33.94a1.9,1.9,0,0,0-.54-1.24c-.73-.72-2.54-1.08-5-1.11a42.82,42.82,0,0,0-6.48.48,17.18,17.18,0,0,1-3.19-2.19,22.09,22.09,0,0,1-5.52-8.62c.09-.33.17-.65.24-1,.34-1.52.58-6.55.58-6.55s-1,3.78-1.11,4.35c-.1.36-.22.75-.36,1.15a27.07,27.07,0,0,1-1.12-7,15.42,15.42,0,0,1,.2-2.41,1.43,1.43,0,0,1,.51-1.05c.45.11.94.78,1.45,1.91a6.85,6.85,0,0,1,.42,2.81,10,10,0,0,0,.36-2.76c-.07-.62-.65-2.2-1.9-2.18h-.65a2,2,0,0,0-2,1.18c-.76,2.82.1,7.17,1.52,12.59l-.43,1.05C10.56,26,9.19,28.65,8,31A83.25,83.25,0,0,1,1.5,42v2.77a43.17,43.17,0,0,0,5.29-7.73,94.72,94.72,0,0,1,14.84-3.53c4.46,2.55,9.58,3.77,11.54,3.24a1.94,1.94,0,0,0,1-.66,6.9,6.9,0,0,0,.38-1.25,2.6,2.6,0,0,1-.68.66c-1.24.58-5.17-.4-9.2-2.37,3.49-.37,6.39-.38,7.94.11,2,.63,2,1.28,2,1.41A4.44,4.44,0,0,0,34.63,33.94ZM7.18,36.14c.75-1.33,1.56-2.77,2.38-4.33A58.18,58.18,0,0,0,13,24.24a22.23,22.23,0,0,0,5.39,7c.52.43,1.08.85,1.64,1.24A63.51,63.51,0,0,0,7.18,36.14Z"/><path class="cls-2" d="M3.47,36.82l-2,1.06v.77l.31-.27C2.13,38.12,3.47,36.82,3.47,36.82Z"/><path class="cls-2" d="M35.3,34.78a1.91,1.91,0,0,0-.55-1.25c-.73-.72-2.53-1.08-5-1.11a43,43,0,0,0-6.48.49,17.22,17.22,0,0,1-3.19-2.2,22.09,22.09,0,0,1-5.52-8.62c.08-.33.16-.64.23-1,.34-1.52.59-6.55.59-6.55s-1,3.78-1.12,4.35c-.09.36-.22.75-.36,1.15a27,27,0,0,1-1.11-7,15.54,15.54,0,0,1,.2-2.42,1.39,1.39,0,0,1,.51-1.05c.44.11.93.78,1.45,1.91a6.83,6.83,0,0,1,.41,2.81,9.79,9.79,0,0,0,.37-2.76c-.07-.61-.66-2.19-1.9-2.18H13.2a2,2,0,0,0-2,1.18c-.76,2.81.09,7.16,1.52,12.59l-.43,1.05c-1.1,2.66-2.46,5.31-3.66,7.66a84,84,0,0,1-6.49,11v2.76A42.92,42.92,0,0,0,7.45,37.9,93.74,93.74,0,0,1,22.3,34.37c4.46,2.55,9.57,3.76,11.54,3.24a2,2,0,0,0,1-.67,6.65,6.65,0,0,0,.37-1.24,2.52,2.52,0,0,1-.67.65c-1.24.59-5.17-.39-9.2-2.36,3.48-.37,6.39-.39,7.94.11,2,.62,2,1.27,1.94,1.4A3.52,3.52,0,0,0,35.3,34.78ZM7.85,37c.75-1.33,1.55-2.77,2.38-4.33a61,61,0,0,0,3.39-7.56,21.94,21.94,0,0,0,5.39,7c.52.44,1.07.85,1.64,1.25A62.83,62.83,0,0,0,7.85,37Z"/><polygon class="cls-2" points="7.31 35.84 6.9 37.8 11.94 35.72 7.31 35.84"/><path class="cls-2" d="M11.21,9c.62-.35,2-.81,2.79-.23a4.59,4.59,0,0,1,1.71,2.34,43.66,43.66,0,0,1-.73,9c-.23,1.26-1.52-.53-1.52-.53s-.15-.27.39-1.7a12.75,12.75,0,0,0,.8-4.32c.11-1.89.37-3.06-.46-3.62s-1.67-.5-2,.29-1.09,2.35-1.09,2.35L11,10.11Z"/></g></g></svg>