<?xml version="1.0" encoding="utf-8"?>
<!-- Generator: Adobe Illustrator 21.1.0, SVG Export Plug-In . SVG Version: 6.00 Build 0)  -->
<svg version="1.1" id="レイヤー_1" xmlns="http://www.w3.org/2000/svg" xmlns:xlink="http://www.w3.org/1999/xlink" x="0px"
	 y="0px" viewBox="0 0 47 47" style="enable-background:new 0 0 47 47;" xml:space="preserve">
<style type="text/css">
	.st0{fill:#0055A4;}
</style>
<path class="st0" d="M47,40.9L34.5,28.5c1.8-2.9,2.9-6.3,2.9-9.9C37.4,8.3,29,0,18.7,0C8.4,0,0,8.3,0,18.5
	c0,10.2,8.4,18.6,18.7,18.6c3.5,0,6.7-1,9.5-2.6L40.8,47L47,40.9z M7,18.5c0-6.4,5.3-11.6,11.7-11.6c6.5,0,11.7,5.2,11.7,11.6
	c0,6.4-5.3,11.6-11.7,11.6C12.2,30.2,7,25,7,18.5z"/>
</svg>
