<svg xmlns="http://www.w3.org/2000/svg" width="48" height="48" viewBox="0 0 48 48"><defs><style>.a,.b{fill:#0055a4;}.a{fill-rule:evenodd;}</style></defs><title>icon_pdf</title><polygon class="a" points="26.73 15.38 26.81 0.03 42.08 15.31 26.73 15.38"/><polygon class="a" points="37 43.08 11.17 43.08 11.17 5.08 30.89 5.08 26.84 0.03 6.06 0.03 6.06 48 42.08 48 42.08 15.27 37 11.19 37 43.08"/><path class="b" d="M40.7,34a1.9,1.9,0,0,0-.55-1.24c-.73-.72-2.53-1.08-5-1.11a43.48,43.48,0,0,0-6.48.49,17.25,17.25,0,0,1-3.19-2.19A22.09,22.09,0,0,1,20,21.29c.08-.33.16-.64.24-1,.34-1.52.58-6.55.58-6.55s-1,3.78-1.11,4.35c-.1.36-.22.75-.36,1.15a27,27,0,0,1-1.11-7,15.12,15.12,0,0,1,.2-2.42,1.39,1.39,0,0,1,.51-1c.44.11.93.78,1.45,1.91a6.79,6.79,0,0,1,.41,2.81,9.9,9.9,0,0,0,.36-2.76c-.07-.62-.65-2.2-1.9-2.18h-.65a1.94,1.94,0,0,0-2,1.18c-.76,2.82.09,7.17,1.52,12.59l-.43,1C16.62,26,15.26,28.68,14.06,31a83.26,83.26,0,0,1-6.5,11v2.76a42.86,42.86,0,0,0,5.29-7.72,94.23,94.23,0,0,1,14.84-3.53c4.46,2.55,9.58,3.76,11.54,3.24a2,2,0,0,0,1-.66,7,7,0,0,0,.38-1.25,2.61,2.61,0,0,1-.67.65c-1.24.59-5.17-.39-9.2-2.36,3.49-.37,6.39-.39,7.94.11,2,.63,2,1.27,1.94,1.41A3.72,3.72,0,0,0,40.7,34ZM13.25,36.17c.75-1.33,1.55-2.77,2.38-4.33A60.19,60.19,0,0,0,19,24.27a22,22,0,0,0,5.39,7c.52.44,1.07.85,1.64,1.25A63.25,63.25,0,0,0,13.25,36.17Z"/><path class="b" d="M9.53,36.85s-1.33.71-2,1.06v.77l.31-.27C8.19,38.15,9.53,36.85,9.53,36.85Z"/><path class="b" d="M41.36,34.81a1.9,1.9,0,0,0-.55-1.24c-.73-.72-2.53-1.08-5-1.11a43.48,43.48,0,0,0-6.48.49,17.25,17.25,0,0,1-3.19-2.19,22.09,22.09,0,0,1-5.52-8.62c.08-.33.16-.64.24-1,.34-1.52.58-6.55.58-6.55s-1,3.78-1.11,4.35c-.1.36-.22.75-.36,1.15a27,27,0,0,1-1.11-7,15.12,15.12,0,0,1,.2-2.42,1.39,1.39,0,0,1,.51-1c.44.11.93.78,1.45,1.91a6.79,6.79,0,0,1,.41,2.81,9.9,9.9,0,0,0,.36-2.76c-.07-.62-.65-2.2-1.9-2.18h-.65a1.94,1.94,0,0,0-2,1.18c-.76,2.82.09,7.17,1.52,12.59l-.43,1c-1.09,2.66-2.45,5.31-3.65,7.66a83.26,83.26,0,0,1-6.5,11v2.76a42.86,42.86,0,0,0,5.29-7.72A94.23,94.23,0,0,1,28.36,34.4c4.46,2.55,9.58,3.76,11.54,3.24a2,2,0,0,0,1-.66,7,7,0,0,0,.38-1.25,2.61,2.61,0,0,1-.67.65C39.33,37,35.4,36,31.37,34c3.49-.37,6.39-.39,7.94.11,2,.63,2,1.27,1.94,1.41A3.72,3.72,0,0,0,41.36,34.81ZM13.91,37c.75-1.33,1.55-2.77,2.38-4.33a60.19,60.19,0,0,0,3.39-7.56,22,22,0,0,0,5.39,7c.52.44,1.07.85,1.64,1.25A63.25,63.25,0,0,0,13.91,37Z"/><polygon class="b" points="13.38 35.88 12.96 37.83 18 35.75 13.38 35.88"/><path class="b" d="M17.27,9.06c.63-.35,2-.81,2.79-.23a4.58,4.58,0,0,1,1.71,2.33,43.29,43.29,0,0,1-.73,9c-.23,1.26-1.52-.52-1.52-.52s-.15-.27.4-1.71a12.79,12.79,0,0,0,.79-4.31c.11-1.89.38-3.06-.46-3.62s-1.67-.5-2,.29-1.08,2.35-1.08,2.35L17,10.15Z"/></svg>